<svg xmlns="http://www.w3.org/2000/svg" viewBox="0 0 500 500"><defs><style>.cls-1{fill:#262629;}.cls-2{fill:#fff;}</style></defs><g id="Layer_1" data-name="Layer 1"><circle class="cls-1" cx="250" cy="250" r="250"/><path class="cls-2" d="M307.67,363.55c-22.7,0-40.73-9.36-56.43-21.05-15.37,28.4-39.74,51.77-78.81,51.77-32.4,0-59.12-19-59.12-54.44,0-34.06,30.39-54.1,61.79-54.1,20,0,35.73,5.34,49.09,11.69,15.7-29.72,25.38-71.12,32.05-96.83,5-19,8.69-32.73,18-48.09-3.34-.33-7-.67-10.35-.67-39.41,0-58.11,16.69-58.11,35.4,0,9.68,6,15.36,13.36,15.36,7,0,12-3.67,15-9.68,1.33-3,2.33-4.68,4.34-4.68s4,1.67,4,8.68c0,22.71-15,52.77-46.42,52.77-28,0-45.41-18-45.41-44.08,0-47.42,49.75-72.14,114.54-72.14a184.92,184.92,0,0,1,23,1.34c13.37-17,27.39-28.05,49.1-28.05,16,0,27.38,6.68,27.38,19.7,0,8.69-7.34,13.69-15.36,13.69-11.36,0-13-13-23-13-8,0-12.36,5-17.7,12.69,28.38,5.67,55.1,20.37,55.1,46.42s-28.39,45.09-50.09,47.42c21,3.34,58.77,18.37,58.77,60.76C372.46,338.16,346.42,363.55,307.67,363.55ZM214.5,313.12c-11.35-7.69-22.71-13.36-35.4-13.36-9.35,0-17.36,7-17.36,16.69,0,8.35,6,16.7,19.7,16.7C194.47,333.15,205.15,325.47,214.5,313.12Zm65.12-65.44a375.75,375.75,0,0,1-10.35,48.07c-2.33,7.68-4.34,15.36-7.34,23.38,9.34,4.67,18.7,8,29.71,8,23.05,0,36.07-15.37,36.07-40.09C327.71,268.71,313.69,247.68,279.62,247.68Zm18.71-90.18c-4.34,12.36-10,46.09-15.37,73.82,29.06-5,38.07-25,38.07-43.75C321,172.2,310.35,162.85,298.33,157.5Z"/></g></svg>