<svg version="1.0" xmlns="http://www.w3.org/2000/svg"
 width="1024.000000pt" height="1024.000000pt" viewBox="0 0 1024.000000 1024.000000"
 preserveAspectRatio="xMidYMid meet">

<g transform="translate(0.000000,1024.000000) scale(0.100000,-0.100000)"
fill="#000000" stroke="none">
<path d="M3570 5275 l0 -1525 1535 0 1535 0 2 1525 3 1525 -1537 0 -1538 0 0
-1525z m2630 36 l0 -1049 -551 548 -551 548 -544 -547 -543 -546 -1 1048 0
1047 1095 0 1095 0 0 -1049z"/>
<path d="M5623 6135 c-180 -39 -300 -180 -310 -365 -8 -140 40 -253 142 -333
170 -133 401 -110 549 55 68 74 91 141 91 263 0 93 -2 105 -33 167 -54 111
-164 196 -282 218 -65 12 -79 12 -157 -5z"/>
<path d="M3710 3235 l0 -175 36 0 36 0 -4 90 c-1 50 0 90 4 90 4 0 26 -27 49
-60 23 -33 45 -60 49 -60 4 0 27 29 51 65 l44 65 7 -37 c4 -21 7 -64 7 -95 1
-58 1 -58 31 -58 l30 0 0 175 0 175 -23 0 c-18 0 -37 -19 -81 -85 -32 -47 -61
-85 -66 -85 -4 0 -33 38 -65 85 -45 67 -62 85 -81 85 l-24 0 0 -175z"/>
<path d="M4350 3235 l0 -175 29 0 c26 0 29 4 34 41 3 23 15 52 27 64 l23 24
41 -62 c37 -56 45 -62 79 -65 20 -2 37 1 37 5 0 11 -44 77 -87 129 -18 23 -33
44 -33 49 0 4 27 43 60 86 l60 79 -38 0 c-35 0 -43 -6 -96 -70 -31 -38 -61
-70 -67 -70 -5 0 -9 32 -9 70 l0 70 -30 0 -30 0 0 -175z"/>
<path d="M5046 3349 c0 -35 1 -115 2 -178 l2 -114 75 6 c42 4 88 13 103 21
115 60 124 221 16 296 -29 19 -52 25 -117 28 l-82 4 1 -63z m155 -26 c42 -25
63 -75 49 -117 -16 -48 -43 -69 -93 -70 l-42 -1 -3 89 c-2 49 -1 95 2 103 7
18 52 16 87 -4z"/>
<path d="M5610 3235 l0 -175 109 0 109 0 4 30 c3 17 2 32 0 35 -3 3 -41 5 -84
5 l-78 0 0 35 0 35 65 0 65 0 0 35 0 35 -65 0 -65 0 0 35 0 35 80 0 80 0 0 35
0 35 -110 0 -110 0 0 -175z"/>
<path d="M6100 3400 c0 -5 23 -62 51 -127 28 -65 60 -140 72 -166 26 -61 54
-62 72 -2 6 22 26 72 45 110 57 122 80 175 80 186 0 6 -15 9 -32 7 -32 -3 -35
-7 -78 -110 -24 -60 -47 -108 -50 -108 -4 0 -26 49 -51 110 -43 108 -45 110
-76 110 -18 0 -33 -4 -33 -10z"/>
</g>
</svg>
